<?xml version="1.0" standalone="no"?>
<!DOCTYPE svg PUBLIC "-//W3C//DTD SVG 20010904//EN" "http://www.w3.org/TR/2001/REC-SVG-20010904/DTD/svg10.dtd">
<svg version="1.0" xmlns="http://www.w3.org/2000/svg"
 width="512.000000pt" height="512.000000pt" viewBox="0 0 512.000000 512.000000"
 preserveAspectRatio="xMidYMid meet">

<rect width="100%" height="100%" fill="#0D1520"/> 

<g transform="translate(0.000000,512.000000) scale(0.100000,-0.100000)"
fill="grey" stroke="none"> <!-- Asegúrate de que stroke sea "none" -->
<path d="M1543 4496 c-65 -21 -127 -61 -170 -110 -45 -52 -975 -1662 -993
-1721 -17 -51 -17 -160 0 -210 20 -65 950 -1672 998 -1726 28 -31 68 -60 110
-81 l67 -33 1005 0 1005 0 67 33 c42 21 82 50 110 81 48 54 978 1661 998 1726
17 50 17 159 0 210 -20 65 -950 1671 -998 1726 -28 31 -68 60 -110 81 l-67 33
-990 2 c-799 1 -998 -1 -1032 -11z m1144 -1007 c108 -14 257 -67 356 -125 109
-65 255 -211 321 -322 65 -108 113 -252 128 -380 23 -195 -24 -409 -128 -585
-66 -110 -211 -255 -321 -321 -161 -95 -368 -145 -545 -132 -236 18 -439 113
-608 285 -197 201 -293 474 -261 749 25 220 112 402 266 558 212 215 498 313
792 273z"/>
</g>
</svg>
